<mxfile host="app.diagrams.net" modified="2022-11-19T23:56:21.322Z" agent="5.0 (Macintosh; Intel Mac OS X 10_15_7) AppleWebKit/537.36 (KHTML, like Gecko) Chrome/107.0.0.0 Safari/537.36" etag="HMm4fTNoJEwNv0yZ5_IM" version="20.5.3" type="github">
  <diagram id="Ux--KKyDZ0E897D-n5yJ" name="第 1 页">
    <mxGraphModel dx="4538" dy="-485" grid="1" gridSize="10" guides="1" tooltips="1" connect="1" arrows="1" fold="1" page="1" pageScale="1" pageWidth="827" pageHeight="1169" math="0" shadow="0">
      <root>
        <mxCell id="0" />
        <mxCell id="1" parent="0" />
        <mxCell id="M75oI9X_u9nyamV0VXVU-1" style="edgeStyle=orthogonalEdgeStyle;rounded=0;orthogonalLoop=1;jettySize=auto;html=1;exitX=1;exitY=0.5;exitDx=0;exitDy=0;entryX=0;entryY=0.5;entryDx=0;entryDy=0;strokeWidth=5;fontSize=25;" edge="1" parent="1" source="M75oI9X_u9nyamV0VXVU-2" target="M75oI9X_u9nyamV0VXVU-25">
          <mxGeometry relative="1" as="geometry" />
        </mxCell>
        <mxCell id="M75oI9X_u9nyamV0VXVU-2" value="" style="rounded=0;whiteSpace=wrap;html=1;fontSize=25;dashed=1;strokeWidth=5;strokeColor=#FF8000;" vertex="1" parent="1">
          <mxGeometry x="-655.32" y="3212.5" width="830" height="190" as="geometry" />
        </mxCell>
        <mxCell id="M75oI9X_u9nyamV0VXVU-3" value="" style="rounded=0;whiteSpace=wrap;html=1;fontSize=25;dashed=1;strokeWidth=5;strokeColor=#FF8000;" vertex="1" parent="1">
          <mxGeometry x="-655.32" y="2592.5" width="830" height="590" as="geometry" />
        </mxCell>
        <mxCell id="M75oI9X_u9nyamV0VXVU-4" value="客户端" style="rounded=0;whiteSpace=wrap;html=1;fillColor=#1ba1e2;fontColor=#ffffff;strokeColor=#006EAF;fontSize=36;" vertex="1" parent="1">
          <mxGeometry x="-397.32" y="2432.5" width="262" height="60" as="geometry" />
        </mxCell>
        <mxCell id="M75oI9X_u9nyamV0VXVU-5" style="edgeStyle=orthogonalEdgeStyle;rounded=0;orthogonalLoop=1;jettySize=auto;html=1;exitX=1;exitY=0.5;exitDx=0;exitDy=0;fontSize=36;strokeWidth=5;" edge="1" parent="1" source="M75oI9X_u9nyamV0VXVU-8" target="M75oI9X_u9nyamV0VXVU-9">
          <mxGeometry relative="1" as="geometry" />
        </mxCell>
        <mxCell id="M75oI9X_u9nyamV0VXVU-6" style="edgeStyle=orthogonalEdgeStyle;rounded=0;orthogonalLoop=1;jettySize=auto;html=1;exitX=0.5;exitY=1;exitDx=0;exitDy=0;strokeWidth=5;fontSize=25;" edge="1" parent="1" source="M75oI9X_u9nyamV0VXVU-8" target="M75oI9X_u9nyamV0VXVU-10">
          <mxGeometry relative="1" as="geometry" />
        </mxCell>
        <mxCell id="M75oI9X_u9nyamV0VXVU-7" style="edgeStyle=orthogonalEdgeStyle;rounded=0;orthogonalLoop=1;jettySize=auto;html=1;entryX=0.5;entryY=0;entryDx=0;entryDy=0;strokeWidth=5;fontSize=25;" edge="1" parent="1" source="M75oI9X_u9nyamV0VXVU-8" target="M75oI9X_u9nyamV0VXVU-12">
          <mxGeometry relative="1" as="geometry" />
        </mxCell>
        <mxCell id="M75oI9X_u9nyamV0VXVU-8" value="连接器" style="rounded=0;whiteSpace=wrap;html=1;fillColor=#1ba1e2;fontColor=#ffffff;strokeColor=#006EAF;fontSize=36;" vertex="1" parent="1">
          <mxGeometry x="-397.32" y="2622.5" width="262" height="60" as="geometry" />
        </mxCell>
        <mxCell id="M75oI9X_u9nyamV0VXVU-9" value="管理连接与权限教研" style="text;html=1;strokeColor=#d6b656;fillColor=#fff2cc;align=center;verticalAlign=middle;whiteSpace=wrap;rounded=0;fontSize=25;" vertex="1" parent="1">
          <mxGeometry x="224.68" y="2609.5" width="230" height="85" as="geometry" />
        </mxCell>
        <mxCell id="M75oI9X_u9nyamV0VXVU-10" value="查询缓存" style="shape=datastore;whiteSpace=wrap;html=1;fontSize=25;fillColor=#1ba1e2;fontColor=#ffffff;strokeColor=#006EAF;" vertex="1" parent="1">
          <mxGeometry x="-625.32" y="2762.5" width="180" height="120" as="geometry" />
        </mxCell>
        <mxCell id="M75oI9X_u9nyamV0VXVU-11" style="edgeStyle=orthogonalEdgeStyle;rounded=0;orthogonalLoop=1;jettySize=auto;html=1;exitX=1;exitY=0.5;exitDx=0;exitDy=0;entryX=0;entryY=0.5;entryDx=0;entryDy=0;strokeWidth=5;fontSize=25;" edge="1" parent="1" source="M75oI9X_u9nyamV0VXVU-12" target="M75oI9X_u9nyamV0VXVU-17">
          <mxGeometry relative="1" as="geometry" />
        </mxCell>
        <mxCell id="M75oI9X_u9nyamV0VXVU-12" value="词法分析器" style="rounded=0;whiteSpace=wrap;html=1;fillColor=#1ba1e2;fontColor=#ffffff;strokeColor=#006EAF;fontSize=36;" vertex="1" parent="1">
          <mxGeometry x="-135.32" y="2762.5" width="262" height="60" as="geometry" />
        </mxCell>
        <mxCell id="M75oI9X_u9nyamV0VXVU-13" style="edgeStyle=orthogonalEdgeStyle;rounded=0;orthogonalLoop=1;jettySize=auto;html=1;exitX=1;exitY=0.5;exitDx=0;exitDy=0;entryX=0;entryY=0.5;entryDx=0;entryDy=0;strokeWidth=5;fontSize=25;" edge="1" parent="1" source="M75oI9X_u9nyamV0VXVU-14" target="M75oI9X_u9nyamV0VXVU-18">
          <mxGeometry relative="1" as="geometry" />
        </mxCell>
        <mxCell id="M75oI9X_u9nyamV0VXVU-14" value="优化器" style="rounded=0;whiteSpace=wrap;html=1;fillColor=#1ba1e2;fontColor=#ffffff;strokeColor=#006EAF;fontSize=36;" vertex="1" parent="1">
          <mxGeometry x="-135.32" y="2933.12" width="262" height="60" as="geometry" />
        </mxCell>
        <mxCell id="M75oI9X_u9nyamV0VXVU-15" style="edgeStyle=orthogonalEdgeStyle;rounded=0;orthogonalLoop=1;jettySize=auto;html=1;exitX=1;exitY=0.5;exitDx=0;exitDy=0;entryX=0;entryY=0.5;entryDx=0;entryDy=0;strokeWidth=5;fontSize=25;" edge="1" parent="1" source="M75oI9X_u9nyamV0VXVU-16" target="M75oI9X_u9nyamV0VXVU-19">
          <mxGeometry relative="1" as="geometry" />
        </mxCell>
        <mxCell id="M75oI9X_u9nyamV0VXVU-16" value="执行器" style="rounded=0;whiteSpace=wrap;html=1;fillColor=#1ba1e2;fontColor=#ffffff;strokeColor=#006EAF;fontSize=36;" vertex="1" parent="1">
          <mxGeometry x="-135.32" y="3089.37" width="262" height="60" as="geometry" />
        </mxCell>
        <mxCell id="M75oI9X_u9nyamV0VXVU-17" value="词法分析、语法分析" style="text;html=1;strokeColor=#d6b656;fillColor=#fff2cc;align=center;verticalAlign=middle;whiteSpace=wrap;rounded=0;fontSize=25;" vertex="1" parent="1">
          <mxGeometry x="226.18" y="2750" width="230" height="85" as="geometry" />
        </mxCell>
        <mxCell id="M75oI9X_u9nyamV0VXVU-18" value="执行计划生成、&lt;br&gt;索引选择" style="text;html=1;strokeColor=#d6b656;fillColor=#fff2cc;align=center;verticalAlign=middle;whiteSpace=wrap;rounded=0;fontSize=25;" vertex="1" parent="1">
          <mxGeometry x="224.68" y="2920.62" width="230" height="85" as="geometry" />
        </mxCell>
        <mxCell id="M75oI9X_u9nyamV0VXVU-19" value="调用引擎接口&lt;br&gt;获取查询结果" style="text;html=1;strokeColor=#d6b656;fillColor=#fff2cc;align=center;verticalAlign=middle;whiteSpace=wrap;rounded=0;fontSize=25;" vertex="1" parent="1">
          <mxGeometry x="226.18" y="3076.87" width="230" height="85" as="geometry" />
        </mxCell>
        <mxCell id="M75oI9X_u9nyamV0VXVU-20" value="客户端" style="text;html=1;strokeColor=#d6b656;fillColor=#fff2cc;align=center;verticalAlign=middle;whiteSpace=wrap;rounded=0;fontSize=25;" vertex="1" parent="1">
          <mxGeometry x="-1080" y="2430" width="230" height="85" as="geometry" />
        </mxCell>
        <mxCell id="M75oI9X_u9nyamV0VXVU-21" value="Server层" style="text;html=1;strokeColor=#d6b656;fillColor=#fff2cc;align=center;verticalAlign=middle;whiteSpace=wrap;rounded=0;fontSize=25;" vertex="1" parent="1">
          <mxGeometry x="-1080" y="2812.5" width="230" height="85" as="geometry" />
        </mxCell>
        <mxCell id="M75oI9X_u9nyamV0VXVU-22" value="Innodb" style="shape=datastore;whiteSpace=wrap;html=1;fontSize=25;fillColor=#1ba1e2;fontColor=#ffffff;strokeColor=#006EAF;" vertex="1" parent="1">
          <mxGeometry x="-608.32" y="3247.5" width="180" height="120" as="geometry" />
        </mxCell>
        <mxCell id="M75oI9X_u9nyamV0VXVU-23" value="myisam" style="shape=datastore;whiteSpace=wrap;html=1;fontSize=25;fillColor=#1ba1e2;fontColor=#ffffff;strokeColor=#006EAF;" vertex="1" parent="1">
          <mxGeometry x="-335.32" y="3247.5" width="180" height="120" as="geometry" />
        </mxCell>
        <mxCell id="M75oI9X_u9nyamV0VXVU-24" value="memory" style="shape=datastore;whiteSpace=wrap;html=1;fontSize=25;fillColor=#1ba1e2;fontColor=#ffffff;strokeColor=#006EAF;" vertex="1" parent="1">
          <mxGeometry x="-65.32" y="3247.5" width="180" height="120" as="geometry" />
        </mxCell>
        <mxCell id="M75oI9X_u9nyamV0VXVU-25" value="读写磁盘，数据化结构存储的实现" style="text;html=1;strokeColor=#d6b656;fillColor=#fff2cc;align=center;verticalAlign=middle;whiteSpace=wrap;rounded=0;fontSize=25;" vertex="1" parent="1">
          <mxGeometry x="226.18" y="3265" width="230" height="85" as="geometry" />
        </mxCell>
        <mxCell id="M75oI9X_u9nyamV0VXVU-26" value="引擎层" style="text;html=1;strokeColor=#d6b656;fillColor=#fff2cc;align=center;verticalAlign=middle;whiteSpace=wrap;rounded=0;fontSize=25;" vertex="1" parent="1">
          <mxGeometry x="-1080" y="3265" width="230" height="85" as="geometry" />
        </mxCell>
      </root>
    </mxGraphModel>
  </diagram>
</mxfile>
